<?xml version="1.0" encoding="utf-8"?>
<!-- Generator: Adobe Illustrator 16.0.4, SVG Export Plug-In . SVG Version: 6.00 Build 0)  -->
<!DOCTYPE svg PUBLIC "-//W3C//DTD SVG 1.1//EN" "http://www.w3.org/Graphics/SVG/1.1/DTD/svg11.dtd">
<svg version="1.1" id="圖層_1" xmlns="http://www.w3.org/2000/svg" xmlns:xlink="http://www.w3.org/1999/xlink" x="0px" y="0px"
	 width="210px" height="45px" viewBox="0 0 210 45" enable-background="new 0 0 210 45" xml:space="preserve">
<g>
	<g>
		<path fill="#00ADE2" d="M40.988,35.591c-0.043-0.85-0.414-1.629-1.043-2.196c-0.346-0.313-0.752-0.534-1.185-0.666l-0.08-1.549
			c0.032-0.031,0.067-0.055,0.095-0.089c0.373-0.41,0.562-0.941,0.534-1.496c-0.058-1.104-0.969-1.967-2.074-1.967l-0.106,0.001
			c-0.3,0.017-0.584,0.099-0.844,0.232l-4.221-1.699l1.116-1.126l2.354-0.668c1.429-0.519,1.429-0.519,1.709-2.26
			c0,0,0.547-2.829,0.547-4.344c0-4.753-1.942-8.495-5.071-11.041l1.085-2.085c0.411-0.792-0.54-2.104-2.122-2.926
			c-1.586-0.824-3.205-0.851-3.616-0.058l-1.094,2.104c-1.941-0.583-4.049-0.894-6.261-0.896h-0.007h-0.008
			c-2.218,0.002-4.33,0.316-6.274,0.899l-1.097-2.107c-0.41-0.792-2.028-0.766-3.614,0.058C8.128,2.534,7.178,3.846,7.59,4.638
			l1.088,2.093c-3.125,2.545-5.062,6.285-5.062,11.033c0,1.516,0.547,4.344,0.547,4.344c0.282,1.742,0.282,1.742,1.71,2.26
			l2.354,0.668l1.111,1.124l-4.231,1.701c-0.259-0.134-0.542-0.216-0.843-0.232l-0.106-0.001c-1.105,0-2.015,0.862-2.073,1.967
			c-0.028,0.555,0.161,1.086,0.532,1.496c0.028,0.034,0.065,0.058,0.096,0.089l-0.081,1.55c-0.432,0.135-0.837,0.352-1.183,0.667
			c-0.631,0.565-1.002,1.345-1.046,2.194L0.35,36.686l2.188,0.11l0.057-1.095c0.012-0.263,0.127-0.501,0.323-0.68
			c0.196-0.176,0.444-0.265,0.708-0.25c0.263,0.015,0.504,0.129,0.678,0.323c0.177,0.194,0.265,0.444,0.253,0.707L4.5,36.898
			l2.19,0.112l0.053-1.093c0.046-0.849-0.242-1.66-0.811-2.293c-0.313-0.349-0.693-0.606-1.109-0.783l0.062-1.198
			c0.753-0.281,1.302-0.985,1.344-1.836c0-0.012-0.001-0.021,0-0.035l2.511-1.009l-1.188,4.65c-0.037,0.232-0.084,0.318,0,0.68
			c0,0,1.933,5.284,2.045,5.594c0.115,0.307,0.191,0.404,0.602,0.533c0.374,0.105,0.755,0.187,1.132,0.275
			c0,0,0.331,1.122,0.435,1.475c0.089,0.302,0.145,0.386,0.489,0.506c2.688,0.932,5.517,1.447,8.443,1.447l0,0h0.008h0.007l0,0
			c2.926,0,5.753-0.516,8.443-1.447c0.346-0.12,0.4-0.204,0.487-0.506c0.104-0.353,0.436-1.475,0.436-1.475
			c0.376-0.089,0.76-0.17,1.131-0.275c0.413-0.129,0.49-0.227,0.602-0.533c0.113-0.31,2.047-5.594,2.047-5.594
			c0.083-0.361,0.036-0.447-0.002-0.68l-1.185-4.645l2.495,1.003c0,0.014-0.003,0.023-0.003,0.035
			c0.045,0.851,0.595,1.553,1.348,1.836l0.062,1.198c-0.418,0.177-0.797,0.438-1.11,0.783c-0.568,0.633-0.855,1.444-0.812,2.293
			l0.056,1.093l2.189-0.112l-0.056-1.097c-0.015-0.263,0.074-0.513,0.25-0.707c0.176-0.194,0.417-0.309,0.681-0.323
			c0.265-0.009,0.513,0.077,0.708,0.25c0.195,0.179,0.309,0.417,0.323,0.68l0.055,1.095l2.19-0.11L40.988,35.591z"/>
		<path fill="#FFFFFF" d="M15.852,14.988c0,1.097-0.89,1.987-1.985,1.987c-1.1,0-1.987-0.89-1.987-1.987
			c0-1.098,0.888-1.988,1.987-1.988C14.961,13,15.852,13.89,15.852,14.988"/>
		<path fill="#FFFFFF" d="M29.515,14.988c0,1.097-0.89,1.987-1.987,1.987c-1.097,0-1.985-0.89-1.985-1.987
			c0-1.098,0.889-1.988,1.985-1.988C28.625,13,29.515,13.89,29.515,14.988"/>
		<path fill="#FFFFFF" d="M13.865,9.322c-0.929,0-1.804,0.233-2.574,0.637c0-0.015,0.008-0.026,0.008-0.039
			c0-0.631-0.511-1.138-1.138-1.138c-0.631,0-1.14,0.507-1.14,1.138c0,0.53,0.375,0.958,0.869,1.083
			c-0.98,1.002-1.586,2.371-1.586,3.881c0,3.066,2.494,5.56,5.561,5.56c3.066,0,5.561-2.494,5.561-5.56
			C19.426,11.817,16.932,9.322,13.865,9.322 M13.865,19.25c-2.409,0-4.369-1.959-4.369-4.367c0-2.41,1.959-4.369,4.369-4.369
			c2.408,0,4.369,1.959,4.369,4.369C18.234,17.291,16.273,19.25,13.865,19.25"/>
		<path fill="#FFFFFF" d="M22.449,37.199h-3.506c-0.955,0-1.731-0.789-1.731-1.759v-2.366c0-0.971,0.776-1.758,1.731-1.758h3.404
			v-1.869c0-0.507,0.411-0.914,0.917-0.914c0.505,0,0.917,0.407,0.917,0.914v5.993C24.182,36.41,23.404,37.199,22.449,37.199
			 M19.046,35.366h3.302v-2.215h-3.302V35.366z"/>
	</g>
	<g>
		<path fill="#7F7F7F" d="M68.164,6.779c-0.632,0-1.143,0.511-1.143,1.141v7.058H52.596c-2.251,0-4.08,1.873-4.08,4.176v7.61
			c0,2.3,1.829,4.175,4.08,4.175h12.629c2.251,0,4.081-1.875,4.081-4.175V7.92C69.306,7.29,68.795,6.779,68.164,6.779
			 M67.021,26.765c0,1.04-0.807,1.888-1.795,1.888h-12.63c-0.989,0-1.795-0.848-1.795-1.888v-7.61c0-1.043,0.806-1.893,1.795-1.893
			h14.425V26.765L67.021,26.765z"/>
		<path fill="#7F7F7F" d="M112.022,14.061H99.392c-2.249,0-4.081,1.874-4.081,4.176v18.841c0,0.633,0.511,1.145,1.143,1.145
			c0.63,0,1.145-0.512,1.145-1.145v-7.057h14.422c2.253,0,4.083-1.87,4.083-4.175v-7.609
			C116.104,15.935,114.273,14.061,112.022,14.061 M113.817,25.846c0,1.042-0.804,1.894-1.795,1.894H97.599v-9.503
			c0-1.041,0.805-1.891,1.793-1.891h12.631c0.991,0,1.795,0.85,1.795,1.891V25.846L113.817,25.846z"/>
		<path fill="#7F7F7F" d="M135.49,14.061h-12.627c-2.25,0-4.084,1.874-4.084,4.176v18.841c0,0.633,0.513,1.145,1.144,1.145
			c0.633,0,1.146-0.512,1.146-1.145v-7.057h14.422c2.253,0,4.085-1.87,4.085-4.175v-7.609
			C139.575,15.935,137.743,14.061,135.49,14.061 M137.286,25.846c0,1.042-0.806,1.894-1.796,1.894h-14.422v-9.503
			c0-1.041,0.808-1.891,1.795-1.891h12.627c0.99,0,1.796,0.85,1.796,1.891V25.846L137.286,25.846z"/>
		<path fill="#7F7F7F" d="M158.916,14.978H144.49V7.92c0-0.63-0.515-1.141-1.146-1.141s-1.143,0.511-1.143,1.141v18.845
			c0,2.3,1.831,4.175,4.081,4.175h12.633c2.249,0,4.079-1.875,4.079-4.175v-7.61C162.995,16.851,161.165,14.978,158.916,14.978
			 M160.709,26.765c0,1.04-0.806,1.888-1.793,1.888h-12.633c-0.989,0-1.793-0.848-1.793-1.888v-9.503h14.426
			c0.985,0,1.793,0.849,1.793,1.893V26.765L160.709,26.765z"/>
		<path fill="#7F7F7F" d="M88.648,14.061h-12.63c-2.25,0-4.081,1.874-4.081,4.176v8.528c0,2.3,1.832,4.175,4.081,4.175h15.38
			c0.633,0,1.143-0.509,1.143-1.141c0-0.636-0.51-1.146-1.143-1.146h-15.38c-0.989,0-1.794-0.848-1.794-1.888v-2.208h14.424
			c2.25,0,4.081-1.875,4.081-4.18v-2.141C92.729,15.935,90.899,14.061,88.648,14.061 M90.443,20.377
			c0,1.046-0.805,1.894-1.795,1.894H74.224v-4.035c0-1.042,0.805-1.891,1.794-1.891h12.63c0.99,0,1.795,0.85,1.795,1.891V20.377z"/>
		<path fill="#7F7F7F" d="M182.338,14.061h-12.629c-2.251,0-4.084,1.874-4.084,4.176v8.528c0,2.3,1.833,4.175,4.084,4.175h12.629
			c2.248,0,4.083-1.875,4.083-4.175v-8.528C186.421,15.935,184.586,14.061,182.338,14.061 M184.132,26.765
			c0,1.04-0.807,1.888-1.794,1.888h-12.629c-0.993,0-1.796-0.848-1.796-1.888v-8.528c0-1.042,0.803-1.891,1.796-1.891h12.629
			c0.987,0,1.794,0.849,1.794,1.891V26.765z"/>
		<path fill="#7F7F7F" d="M208.51,28.652h-15.378c-0.992,0-1.799-0.848-1.799-1.888v-9.228h14.426c0.63,0,1.146-0.511,1.146-1.142
			c0-0.633-0.516-1.143-1.146-1.143h-14.426v-2.942c0-0.63-0.512-1.142-1.143-1.142s-1.144,0.511-1.144,1.142v14.454
			c0,2.3,1.831,4.175,4.083,4.175h15.378c0.632,0,1.143-0.509,1.143-1.141C209.65,29.163,209.142,28.652,208.51,28.652"/>
	</g>
</g>
</svg>
